<svg width="33" height="34" viewBox="0 0 33 34" fill="none" xmlns="http://www.w3.org/2000/svg">
<path d="M5.84375 0.912506C2.6125 0.912506 0 3.52501 0 6.75626V27.2438C0 30.475 2.6125 33.0875 5.84375 33.0875H27.1562C30.3875 33.0875 33 30.475 33 27.2438V6.75626C33 3.52501 30.3875 0.912506 27.1562 0.912506H5.84375ZM21.395 7.96626H24.1863C24.255 7.95251 24.31 8.00751 24.3238 8.06251V21.18C24.3238 21.4275 24.3375 21.7025 24.3512 22.005C24.3787 22.2938 24.3925 22.5688 24.4062 22.8025C24.4062 22.8988 24.365 22.9813 24.2687 23.0225C23.5537 23.325 22.7975 23.545 22.0275 23.6825C21.34 23.8063 20.625 23.875 19.91 23.875C18.8925 23.8888 17.875 23.6825 16.9538 23.2563C16.0875 22.8575 15.3725 22.1975 14.8775 21.3863C14.3687 20.5475 14.1213 19.5025 14.1213 18.2513C14.1075 17.2338 14.3687 16.23 14.8775 15.35C15.4 14.4563 16.1562 13.7138 17.0637 13.2188C18.0262 12.6825 19.1812 12.4213 20.5425 12.4213C20.6112 12.4213 20.7075 12.4213 20.8312 12.435C20.955 12.4488 21.0925 12.4488 21.2575 12.4625V8.11751C21.2575 8.02126 21.2987 7.96626 21.395 7.96626ZM9.11625 9.14876H11.7975C11.88 9.135 11.9625 9.19001 11.9762 9.28626C11.99 9.30001 11.99 9.31376 11.99 9.32751V23.435C11.99 23.5863 11.9212 23.655 11.7975 23.655H9.1025C8.97875 23.655 8.92375 23.5863 8.92375 23.435V9.32751C8.92375 9.20376 8.9925 9.14876 9.11625 9.14876ZM20.4325 14.9788C19.8962 14.9788 19.36 15.0888 18.8787 15.3363C18.4112 15.57 18.0125 15.9138 17.71 16.3538C17.4075 16.7938 17.2563 17.385 17.2563 18.1C17.2425 18.5813 17.325 19.0625 17.49 19.5163C17.6275 19.8875 17.8337 20.2175 18.1088 20.4925C18.37 20.74 18.6863 20.9325 19.0438 21.0425C19.415 21.1663 19.8 21.2213 20.185 21.2213C20.3913 21.2213 20.5837 21.2075 20.7625 21.1938C20.9412 21.2075 21.1062 21.18 21.2575 21.125V15.075C20.9872 15.011 20.7103 14.9787 20.4325 14.9788Z" fill="#F7F1EA"/>
</svg>
