<svg width="40" height="40" viewBox="0 0 40 40" fill="none" xmlns="http://www.w3.org/2000/svg">
<path d="M36.25 10.9725V29.0275C36.2493 30.9428 35.4882 32.7795 34.1338 34.1338C32.7795 35.4882 30.9428 36.2493 29.0275 36.25H10.975C9.05924 36.25 7.22192 35.4891 5.86704 34.1347C4.51216 32.7803 3.75066 30.9433 3.75 29.0275V10.975C3.75 9.05924 4.51086 7.22192 5.86527 5.86704C7.21968 4.51216 9.05674 3.75066 10.9725 3.75H29.0275C30.9428 3.75066 32.7795 4.51182 34.1338 5.86615C35.4882 7.22049 36.2493 9.05718 36.25 10.9725Z" fill="#F7F1EA"/>
<path d="M12.3824 28.6326L13.6568 23.6248L13.6582 23.6277H18.818L20.1408 28.6526C20.1726 28.7628 20.2541 28.7957 20.3827 28.7957H23.06C23.1886 28.7957 23.2203 28.7113 23.1886 28.5782L18.0605 10.5674C18.0287 10.4329 17.9804 10.4 17.867 10.4H14.4806C14.4004 10.4 14.3521 10.4501 14.3521 10.5674C14.3558 11.0343 14.3015 11.4998 14.1903 11.9524L9.61105 28.5496C9.57926 28.7499 9.61105 28.8 9.77277 28.8H12.1405C12.3022 28.8 12.3506 28.7657 12.3824 28.6326Z" fill="black"/>
<path d="M16.12 14.4C16.48 16.1062 17.4462 19.6287 17.855 21.2537H14.4C15.0125 18.9937 15.785 16.1062 16.0912 14.4H16.12Z" fill="#F7F1EA"/>
<path d="M25.9373 16.9425C25.8061 16.9425 25.7623 17.0013 25.7623 17.1175H25.7786V28.6088C25.7786 28.7263 25.8223 28.7988 25.9686 28.7988H28.2273C28.3736 28.7988 28.4023 28.74 28.4023 28.6238V17.1175C28.4023 16.9863 28.3436 16.9425 28.2273 16.9425H25.9373Z" fill="black"/>
<path d="M26.038 12.7557C25.7591 13.0347 25.6023 13.413 25.6023 13.8075H25.6048C25.5883 14.0044 25.6143 14.2025 25.6812 14.3883C25.7481 14.5742 25.8543 14.7435 25.9925 14.8846C26.1307 15.0258 26.2976 15.1355 26.482 15.2063C26.6664 15.2771 26.8639 15.3074 27.0611 15.295C27.2623 15.3133 27.4651 15.2876 27.6554 15.2197C27.8457 15.1518 28.019 15.0434 28.1632 14.9019C28.3074 14.7604 28.4192 14.5892 28.4907 14.4003C28.5622 14.2113 28.5918 14.0091 28.5773 13.8075C28.5773 13.413 28.4206 13.0347 28.1417 12.7557C27.8627 12.4767 27.4844 12.32 27.0898 12.32C26.6953 12.32 26.317 12.4767 26.038 12.7557Z" fill="black"/>
</svg>
