<svg width="40" height="40" viewBox="0 0 40 40" fill="none" xmlns="http://www.w3.org/2000/svg">
<path d="M16.4 20.6667C16.4 20.8167 16.4 20.8167 16.2833 20.8167H13.3333C13.8833 19.15 14.4667 17.3833 15 15.65C15 15.7833 15 15.9167 15.1167 16.05C15.2333 16.1833 15.2667 16.6 15.3333 16.8667L15.6333 17.8C15.6333 18.1167 15.8167 18.4167 15.9167 18.7333L16.2333 19.6833L16.4 20.6667Z" fill="#F7F1EA"/>
<path d="M28.4667 19.6167C28.3741 19.3346 28.2079 19.0824 27.9852 18.886C27.7625 18.6897 27.4914 18.5564 27.2 18.5C26.8965 18.4502 26.5869 18.4502 26.2833 18.5C26.0587 18.5437 25.8466 18.6367 25.6622 18.7721C25.4778 18.9075 25.3256 19.0821 25.2167 19.2833C25.0478 19.5827 24.9349 19.9102 24.8833 20.25H28.3333C28.5 20.25 28.55 20.25 28.5333 20.0167C28.5275 19.8811 28.5051 19.7468 28.4667 19.6167ZM28.4667 19.6167C28.3741 19.3346 28.2079 19.0824 27.9852 18.886C27.7625 18.6897 27.4914 18.5564 27.2 18.5C26.8965 18.4502 26.5869 18.4502 26.2833 18.5C26.0587 18.5437 25.8466 18.6367 25.6622 18.7721C25.4778 18.9075 25.3256 19.0821 25.2167 19.2833C25.0478 19.5827 24.9349 19.9102 24.8833 20.25H28.3333C28.5 20.25 28.55 20.25 28.5333 20.0167C28.5275 19.8811 28.5051 19.7468 28.4667 19.6167ZM28.4667 19.6167C28.3741 19.3346 28.2079 19.0824 27.9852 18.886C27.7625 18.6897 27.4914 18.5564 27.2 18.5C26.8965 18.4502 26.5869 18.4502 26.2833 18.5C26.0587 18.5437 25.8466 18.6367 25.6622 18.7721C25.4778 18.9075 25.3256 19.0821 25.2167 19.2833C25.0478 19.5827 24.9349 19.9102 24.8833 20.25H28.3333C28.5 20.25 28.55 20.25 28.5333 20.0167C28.5275 19.8811 28.5051 19.7468 28.4667 19.6167ZM28.4667 19.6167C28.3741 19.3346 28.2079 19.0824 27.9852 18.886C27.7625 18.6897 27.4914 18.5564 27.2 18.5C26.8965 18.4502 26.5869 18.4502 26.2833 18.5C26.0587 18.5437 25.8466 18.6367 25.6622 18.7721C25.4778 18.9075 25.3256 19.0821 25.2167 19.2833C25.0478 19.5827 24.9349 19.9102 24.8833 20.25H28.3333C28.5 20.25 28.55 20.25 28.5333 20.0167C28.5275 19.8811 28.5051 19.7468 28.4667 19.6167ZM28.3333 3.33333H11.6667C9.45653 3.33333 7.33691 4.2113 5.77411 5.77411C4.21131 7.33691 3.33333 9.45652 3.33333 11.6667V28.3333C3.33333 30.5435 4.21131 32.6631 5.77411 34.2259C7.33691 35.7887 9.45653 36.6667 11.6667 36.6667H28.3333C30.5435 36.6667 32.6631 35.7887 34.2259 34.2259C35.7887 32.6631 36.6667 30.5435 36.6667 28.3333V11.6667C36.6667 9.45652 35.7887 7.33691 34.2259 5.77411C32.6631 4.2113 30.5435 3.33333 28.3333 3.33333ZM21.2167 26.6667H18.5167C18.4704 26.6737 18.4231 26.6666 18.3809 26.6464C18.3387 26.6262 18.3035 26.5938 18.28 26.5533C18.2644 26.5267 18.2542 26.4973 18.25 26.4667C18.1167 26.05 17.9667 25.65 17.8333 25.2333C17.7 24.8167 17.5 24.2833 17.35 23.8C17.35 23.5333 17.1333 23.5 16.9 23.5H12.7C12.5167 23.5 12.5167 23.5 12.45 23.7C12.3833 23.9 12.2833 24.25 12.1833 24.5333L11.9167 25.4L11.5667 26.4167C11.5756 26.4607 11.5756 26.506 11.5667 26.55C11.5667 26.7667 11.3 26.7333 11.1333 26.7333H8.98333C8.73333 26.7333 8.65 26.6167 8.75 26.3833C8.85 26.15 8.93333 25.8833 9.01667 25.65L9.36667 24.5833L10.0167 22.75C10.2 22.25 10.3667 21.7333 10.5333 21.2167C10.7 20.7 10.85 20.3333 11.0167 19.8833L11.3667 18.8333L11.9833 17.1667L12.4833 15.7C12.65 15.2333 12.8167 14.7667 12.9667 14.2833C12.9901 14.0562 12.9901 13.8272 12.9667 13.6C12.9667 13.25 12.9667 13.25 13.3167 13.25H16.3333C16.6 13.25 16.5833 13.25 16.6667 13.5C16.75 13.75 16.9667 14.3167 17.1 14.7167C17.2333 15.1167 17.35 15.4167 17.4667 15.75L17.8667 16.8333L18.2667 18C18.4333 18.45 18.6 18.8833 18.75 19.3333L19.1833 20.5333C19.3167 20.9333 19.4667 21.3333 19.6167 21.75C19.7667 22.1667 19.8167 22.3667 19.9333 22.6667C20.05 22.9667 20.1667 23.3333 20.3 23.6667C20.4333 24 20.5167 24.3 20.6333 24.6167L21.1167 25.9667L21.3167 26.55C21.3833 26.5333 21.3333 26.6667 21.2167 26.6667ZM31.2167 21.6667C31.2244 21.8167 31.2244 21.9667 31.2167 22.1167C31.2167 22.2667 30.9667 22.3167 30.8167 22.3167H24.9333C24.9933 22.8633 25.2333 23.3733 25.6167 23.7667C26.3112 24.1932 27.0994 24.4436 27.9128 24.4958C28.7261 24.5481 29.5399 24.4008 30.2833 24.0667C30.4167 24.0667 30.4833 24.0667 30.4833 24.2V26.0833C30.4833 26.3833 30.3667 26.4167 30.1167 26.5167L29.5167 26.7C29.3261 26.7562 29.1309 26.7952 28.9333 26.8167C28.5167 26.8167 28.1 26.9333 27.6833 26.95C27.2667 26.9667 27.1167 26.95 26.8333 26.95H26.6667C26.3333 26.95 25.9833 26.95 25.6667 26.8333C24.7473 26.6497 23.9082 26.1836 23.2667 25.5C22.8597 25.0792 22.5422 24.5802 22.3333 24.0333C22.1647 23.6342 22.0525 23.2135 22 22.7833C21.9761 22.2947 21.9761 21.8053 22 21.3167C22.025 20.715 22.1383 20.12 22.3333 19.55C22.4972 19.0756 22.7273 18.6267 23.0167 18.2167C23.3964 17.6445 23.9117 17.175 24.5167 16.85C24.7778 16.6989 25.05 16.5711 25.3333 16.4667C25.641 16.3934 25.9526 16.3378 26.2667 16.3C26.55 16.2833 26.8333 16.2833 27.1167 16.3C27.5344 16.3067 27.9456 16.3622 28.35 16.4667C28.7167 16.57 29.0667 16.7144 29.4 16.9C29.9133 17.1944 30.339 17.62 30.6333 18.1333C30.8 18.4333 30.9333 18.7333 31.0667 19.0333C31.1378 19.2456 31.1933 19.4622 31.2333 19.6833C31.3823 20.3345 31.3993 21.0088 31.2833 21.6667H31.2167ZM27.1333 18.5833C26.8298 18.5336 26.5202 18.5336 26.2167 18.5833C25.9921 18.6271 25.78 18.72 25.5955 18.8554C25.4111 18.9909 25.259 19.1655 25.15 19.3667C24.9812 19.666 24.8682 19.9936 24.8167 20.3333H28.3333C28.5 20.3333 28.55 20.3333 28.5333 20.1C28.5195 19.9517 28.4859 19.806 28.4333 19.6667C28.3511 19.3795 28.1933 19.1198 27.9763 18.9145C27.7594 18.7093 27.4912 18.5661 27.2 18.5L27.1333 18.5833ZM28.4 19.7C28.3075 19.4179 28.1412 19.1657 27.9186 18.9694C27.6959 18.7731 27.4248 18.6398 27.1333 18.5833C26.8298 18.5336 26.5202 18.5336 26.2167 18.5833C25.9921 18.6271 25.78 18.72 25.5955 18.8554C25.4111 18.9909 25.259 19.1655 25.15 19.3667C24.9812 19.666 24.8682 19.9936 24.8167 20.3333H28.3333C28.5 20.3333 28.55 20.3333 28.5333 20.1C28.5333 19.9356 28.5111 19.7744 28.4667 19.6167L28.4 19.7ZM28.4 19.7C28.3075 19.4179 28.1412 19.1657 27.9186 18.9694C27.6959 18.7731 27.4248 18.6398 27.1333 18.5833C26.8298 18.5336 26.5202 18.5336 26.2167 18.5833C25.9921 18.6271 25.78 18.72 25.5955 18.8554C25.4111 18.9909 25.259 19.1655 25.15 19.3667C24.9812 19.666 24.8682 19.9936 24.8167 20.3333H28.3333C28.5 20.3333 28.55 20.3333 28.5333 20.1C28.5333 19.9356 28.5111 19.7744 28.4667 19.6167L28.4 19.7ZM28.4 19.7C28.3075 19.4179 28.1412 19.1657 27.9186 18.9694C27.6959 18.7731 27.4248 18.6398 27.1333 18.5833C26.8298 18.5336 26.5202 18.5336 26.2167 18.5833C25.9921 18.6271 25.78 18.72 25.5955 18.8554C25.4111 18.9909 25.259 19.1655 25.15 19.3667C24.9812 19.666 24.8682 19.9936 24.8167 20.3333H28.3333C28.5 20.3333 28.55 20.3333 28.5333 20.1C28.5333 19.9356 28.5111 19.7744 28.4667 19.6167L28.4 19.7ZM28.4 19.7C28.3075 19.4179 28.1412 19.1657 27.9186 18.9694C27.6959 18.7731 27.4248 18.6398 27.1333 18.5833C26.8298 18.5336 26.5202 18.5336 26.2167 18.5833C25.9921 18.6271 25.78 18.72 25.5955 18.8554C25.4111 18.9909 25.259 19.1655 25.15 19.3667C24.9812 19.666 24.8682 19.9936 24.8167 20.3333H28.3333C28.5 20.3333 28.55 20.3333 28.5333 20.1C28.5333 19.9356 28.5111 19.7744 28.4667 19.6167L28.4 19.7Z" fill="#F7F1EA"/>
</svg>
