<svg width="33" height="38" viewBox="0 0 33 38" fill="none" xmlns="http://www.w3.org/2000/svg">
<path d="M28.9717 13.7005L18.6335 5.4061C17.9563 4.86294 16.8185 4.86537 16.075 5.409C15.3221 5.95829 15.2353 6.86888 15.9044 7.44308L20.2039 11.0982H7.07657C5.99292 11.0987 4.95123 11.8567 4.74569 12.7959C4.53319 13.7522 5.26872 14.5363 6.39543 14.5399H13.0393L1.13644 24.0839C0.0178571 24.978 -0.343145 26.4665 0.361392 27.4076C1.07586 28.3656 2.59676 28.3675 3.72694 27.413L10.1984 21.8807C10.1984 21.8807 10.1034 22.627 10.111 23.0753C10.3055 26.8595 13.0673 30.3676 16.4869 31.9213C22.3792 34.6477 30.3345 32.1519 32.5716 25.0466C33.6354 21.3195 32.8199 16.8874 28.9716 13.7006M18.0123 26.912C13.3586 24.3674 13.3585 17.9713 18.0123 15.4266C22.666 12.882 28.5148 16.0801 28.5148 21.1693C28.5148 26.2585 22.666 29.4567 18.0123 26.912ZM19.4295 24.6221C16.4611 23.0002 16.4611 18.9236 19.4295 17.3018C22.3979 15.68 26.1285 17.7182 26.1285 20.9619C26.1285 24.2056 22.3979 26.2439 19.4295 24.6221Z" fill="#F7F1EA"/>
</svg>
