<svg width="19" height="19" viewBox="0 0 19 19" fill="none" xmlns="http://www.w3.org/2000/svg">
<path d="M16.6651 3.938C16.5969 3.93098 16.5282 3.93098 16.4601 3.938H2.46007C2.37034 3.93939 2.28121 3.95284 2.19507 3.978L9.42007 11.173L16.6651 3.938Z" fill="#F7F1EA"/>
<path d="M17.4051 4.633L10.1251 11.883C9.93773 12.0693 9.68427 12.1738 9.42009 12.1738C9.1559 12.1738 8.90245 12.0693 8.71509 11.883L1.50009 4.688C1.47791 4.76952 1.46615 4.85353 1.46509 4.938V14.938C1.46509 15.2032 1.57044 15.4576 1.75798 15.6451C1.94552 15.8326 2.19987 15.938 2.46509 15.938H16.4651C16.7303 15.938 16.9847 15.8326 17.1722 15.6451C17.3597 15.4576 17.4651 15.2032 17.4651 14.938V4.938C17.4611 4.83383 17.4409 4.73092 17.4051 4.633ZM3.15009 14.938H2.45509V14.223L6.09009 10.618L6.79509 11.323L3.15009 14.938ZM16.4551 14.938H15.7551L12.1101 11.323L12.8151 10.618L16.4501 14.223L16.4551 14.938Z" fill="#F7F1EA"/>
</svg>
