<svg width="22" height="34" viewBox="0 0 22 34" fill="none" xmlns="http://www.w3.org/2000/svg">
<path d="M4.62726 0H9.23596V9.44467H4.62732C-1.45047 9.20123 -1.51185 0.255683 4.62726 0ZM4.62726 19.2933H9.23596V9.84863H4.62732C-1.5118 10.1043 -1.45047 19.0499 4.62726 19.2933ZM14.239 0H9.6302V9.44467H14.239C20.3986 9.10691 20.3218 0.192787 14.239 0ZM9.23596 24.4197V19.6973H4.62732C0.866432 19.6973 -1.5118 24.2153 1.1038 27.4604C3.59757 30.6769 9.23601 29.0733 9.23601 24.4197M18.8571 14.571C18.8571 10.9418 14.9965 8.66129 11.9247 10.4759C8.85293 12.2905 8.85288 16.8515 11.9247 18.6661C14.9965 20.4807 18.8571 18.2002 18.8571 14.571Z" fill="#F7F1EA"/>
</svg>
