<svg width="23" height="23" viewBox="0 0 23 23" fill="none" xmlns="http://www.w3.org/2000/svg">
<g clip-path="url(#clip0_148_56)">
<path d="M16.0833 2.77134H6.91659C4.38528 2.77134 2.33325 4.82336 2.33325 7.35467V16.5213C2.33325 19.0526 4.38528 21.1047 6.91659 21.1047H16.0833C18.6146 21.1047 20.6666 19.0526 20.6666 16.5213V7.35467C20.6666 4.82336 18.6146 2.77134 16.0833 2.77134Z" fill="#F7F1EA" stroke="black" stroke-width="2" stroke-linecap="round" stroke-linejoin="round"/>
<path d="M15.1667 11.3605C15.2799 12.1234 15.1495 12.9025 14.7943 13.5871C14.4391 14.2717 13.8771 14.8268 13.1882 15.1735C12.4993 15.5203 11.7186 15.641 10.9572 15.5184C10.1958 15.3959 9.49234 15.0364 8.94699 14.4911C8.40165 13.9457 8.04214 13.2423 7.91962 12.4809C7.79709 11.7194 7.91778 10.9387 8.26452 10.2498C8.61126 9.56095 9.16639 8.99893 9.85096 8.64373C10.5355 8.28852 11.3147 8.15821 12.0776 8.27134C12.8557 8.38673 13.5762 8.74935 14.1324 9.30562C14.6887 9.86189 15.0513 10.5823 15.1667 11.3605Z" fill="#F7F1EA" stroke="black" stroke-width="2" stroke-linecap="round" stroke-linejoin="round"/>
<path d="M16.5417 6.89634H16.5503" stroke="black" stroke-width="2" stroke-linecap="round" stroke-linejoin="round"/>
</g>
<defs>
<clipPath id="clip0_148_56">
<rect width="22" height="22" fill="white" transform="translate(0.5 0.938004)"/>
</clipPath>
</defs>
</svg>
