<svg width="17" height="17" viewBox="0 0 17 17" fill="none" xmlns="http://www.w3.org/2000/svg">
<path d="M3.94 5.828C4.74 5.828 5.38 5.178 5.38 4.388C5.38 3.598 4.73 2.948 3.94 2.948C3.15 2.948 2.5 3.598 2.5 4.388C2.5 5.178 3.15 5.828 3.94 5.828ZM6.75 6.918V14.938H9.23V10.978C9.23 9.928 9.43 8.918 10.72 8.918C12.01 8.918 12.01 10.118 12.01 11.038V14.938H14.5V10.538C14.5 8.378 14.04 6.718 11.52 6.718C10.31 6.718 9.5 7.378 9.17 8.008H9.14V6.908H6.76L6.75 6.918ZM2.7 6.918H5.19V14.938H2.7V6.918Z" fill="#F7F1EA"/>
</svg>
