<svg width="21" height="21" viewBox="0 0 21 21" fill="none" xmlns="http://www.w3.org/2000/svg">
<path d="M4.66676 9.15467C6.26691 12.6385 9.10959 15.3997 12.6384 16.898L13.2051 17.1505C13.8326 17.4299 14.5386 17.4789 15.1987 17.2888C15.8588 17.0987 16.4306 16.6817 16.8134 16.1113L17.5543 15.008C17.6702 14.835 17.7171 14.6248 17.6858 14.4189C17.6545 14.213 17.5472 14.0263 17.3851 13.8955L14.8751 11.8705C14.7877 11.8 14.6869 11.7479 14.5789 11.7174C14.4708 11.6868 14.3577 11.6784 14.2463 11.6926C14.135 11.7069 14.0276 11.7435 13.9307 11.8003C13.8339 11.857 13.7495 11.9328 13.6826 12.023L12.9059 13.0705C10.9123 12.0859 9.29853 10.4718 8.31426 8.478L9.36093 7.70133C9.45113 7.63447 9.52689 7.55006 9.58366 7.45318C9.64043 7.35631 9.67704 7.24896 9.69128 7.13758C9.70552 7.0262 9.69711 6.91309 9.66655 6.80505C9.63598 6.697 9.5839 6.59625 9.51343 6.50883L7.48843 3.99883C7.35768 3.83671 7.17095 3.72943 6.96504 3.69812C6.75913 3.66681 6.54896 3.71374 6.37593 3.82967L5.26509 4.57467C4.69126 4.95948 4.27267 5.53551 4.08389 6.20014C3.89511 6.86476 3.94839 7.57483 4.23426 8.20383L4.66676 9.15467Z" fill="#F7F1EA"/>
</svg>
