<svg width="40" height="40" viewBox="0 0 40 40" fill="none" xmlns="http://www.w3.org/2000/svg">
<path d="M17.4167 17.4667C17.4419 17.9727 17.289 18.4716 16.9845 18.8766C16.68 19.2816 16.2432 19.567 15.75 19.6833C14.88 19.9403 13.9726 20.0473 13.0667 20C12.8333 20 12.8167 19.85 12.8167 19.6833V15.4333C12.8167 15.3167 12.9333 15.1167 13 15.1167C13.9534 15.0099 14.9181 15.072 15.85 15.3C16.319 15.4285 16.73 15.7134 17.0149 16.1074C17.2998 16.5015 17.4416 16.981 17.4167 17.4667Z" fill="#F7F1EA"/>
<path d="M28.3333 3.33333H11.6667C9.45653 3.33333 7.33692 4.2113 5.77411 5.77411C4.21131 7.33691 3.33334 9.45652 3.33334 11.6667V28.3333C3.33334 30.5435 4.21131 32.6631 5.77411 34.2259C7.33692 35.7887 9.45653 36.6667 11.6667 36.6667H28.3333C30.5435 36.6667 32.6631 35.7887 34.2259 34.2259C35.7887 32.6631 36.6667 30.5435 36.6667 28.3333V11.6667C36.6667 9.45652 35.7887 7.33691 34.2259 5.77411C32.6631 4.2113 30.5435 3.33333 28.3333 3.33333ZM18.3333 21.6667C17.4922 22.2009 16.5282 22.5107 15.5333 22.5667H13.3C12.8333 22.5667 12.8333 22.5667 12.8333 23.0167V26.8833C12.8333 27.2167 12.7333 27.3167 12.4 27.3167H10.2C9.88334 27.3167 9.8 27.2 9.8 26.9V12.85C9.8 12.5167 9.8 12.4167 10.2167 12.4167H15.4333C16.3855 12.4425 17.3152 12.7122 18.1333 13.2C18.8399 13.5981 19.4282 14.1766 19.8381 14.8764C20.2481 15.5763 20.4649 16.3723 20.4667 17.1833C20.5631 18.0551 20.4145 18.9364 20.0377 19.7284C19.6608 20.5204 19.0706 21.1916 18.3333 21.6667ZM28.2 27.1667C26.7506 27.7314 25.1637 27.8418 23.65 27.4833C23.1956 27.3833 22.7511 27.25 22.3167 27.0833C22.2497 27.0519 22.1908 27.0055 22.1445 26.9477C22.0983 26.8899 22.066 26.8223 22.05 26.75V24.2333C22.5833 24.4333 23.0833 24.6667 23.6 24.8333C24.4659 25.1101 25.3827 25.1898 26.2833 25.0667C26.4633 25.0333 26.6356 24.9778 26.8 24.9C26.8977 24.8572 26.9826 24.7899 27.0465 24.7045C27.1103 24.6191 27.151 24.5186 27.1644 24.4128C27.1778 24.307 27.1636 24.1996 27.1231 24.1009C27.0826 24.0023 27.0172 23.9158 26.9333 23.85C26.5521 23.5861 26.1443 23.3626 25.7167 23.1833C25.0333 22.85 24.3333 22.5833 23.6833 22.2C23.0964 21.9145 22.6173 21.4473 22.3171 20.8678C22.0168 20.2883 21.9115 19.6274 22.0167 18.9833C22.1014 18.3634 22.359 17.7799 22.7598 17.2994C23.1607 16.819 23.6886 16.4611 24.2833 16.2667C25.3552 15.9042 26.499 15.807 27.6167 15.9833C28.15 15.9833 28.6667 16.1833 29.2 16.2833C29.4833 16.2833 29.5833 16.5167 29.5667 16.8V18.75C29.5667 19.1167 29.4833 19.15 29.15 19.0167C28.109 18.5347 26.9584 18.3391 25.8167 18.45C25.6549 18.4688 25.4973 18.5138 25.35 18.5833C25.25 18.6226 25.162 18.6873 25.0947 18.771C25.0274 18.8547 24.9832 18.9546 24.9663 19.0607C24.9495 19.1667 24.9607 19.2754 24.9987 19.3758C25.0368 19.4763 25.1004 19.565 25.1833 19.6333C25.6656 19.9544 26.1711 20.2322 26.7 20.4667C27.3333 20.7833 28 21.0333 28.6167 21.3833C29.1762 21.638 29.6398 22.0648 29.9396 22.6015C30.2394 23.1382 30.3599 23.7567 30.2833 24.3667C30.2307 24.9752 30.0049 25.5559 29.6328 26.0402C29.2607 26.5246 28.7577 26.8923 28.1833 27.1L28.2 27.1667Z" fill="#F7F1EA"/>
</svg>
