<svg width="38" height="38" viewBox="0 0 38 38" fill="none" xmlns="http://www.w3.org/2000/svg">
<path d="M25.7996 33.06C25.4405 33.2336 25.0361 33.2905 24.643 33.2228C24.2499 33.1551 23.8878 32.9661 23.6075 32.6824L11.438 21.5246L6.13701 25.5692C5.89808 25.751 5.60299 25.8431 5.30311 25.8297C5.00323 25.8162 4.71757 25.698 4.49588 25.4956L2.79538 23.94C2.66317 23.8183 2.55763 23.6705 2.48544 23.506C2.41325 23.3415 2.37598 23.1637 2.37598 22.9841C2.37598 22.8044 2.41325 22.6266 2.48544 22.4621C2.55763 22.2976 2.66317 22.1498 2.79538 22.0281L7.39101 17.8125L2.79538 13.5969C2.66317 13.4752 2.55763 13.3274 2.48544 13.1629C2.41325 12.9983 2.37598 12.8206 2.37598 12.6409C2.37598 12.4612 2.41325 12.2835 2.48544 12.119C2.55763 11.9544 2.66317 11.8067 2.79538 11.685L4.49588 10.1294C4.71785 9.92732 5.00366 9.80954 5.30354 9.79652C5.60341 9.7835 5.89836 9.87607 6.13701 10.0581L11.438 14.1004L23.6075 2.94499C23.8891 2.66317 24.2512 2.4757 24.6438 2.40849C25.0365 2.34127 25.4404 2.39762 25.7996 2.56974L32.1575 5.64299C32.8249 5.96599 33.25 6.64524 33.25 7.39099V19H25.536V10.7682L16.302 17.8125L25.536 24.8567V19H33.25V28.2364C33.25 28.9821 32.8249 29.6614 32.1575 29.9844L25.7996 33.06Z" fill="#F7F1EA"/>
</svg>
